<svg width="46" height="45" viewBox="0 0 46 45" fill="none" xmlns="http://www.w3.org/2000/svg">
<path fill-rule="evenodd" clip-rule="evenodd" d="M12.85 15.25C12.85 14.8655 13.0027 14.4967 13.2747 14.2247C13.5466 13.9528 13.9154 13.8 14.3 13.8H31.7C32.0845 13.8 32.4534 13.9528 32.7253 14.2247C32.9972 14.4967 33.15 14.8655 33.15 15.25C33.15 15.6346 32.9972 16.0034 32.7253 16.2754C32.4534 16.5473 32.0845 16.7 31.7 16.7H14.3C13.9154 16.7 13.5466 16.5473 13.2747 16.2754C13.0027 16.0034 12.85 15.6346 12.85 15.25ZM12.85 22.5C12.85 22.1155 13.0027 21.7467 13.2747 21.4747C13.5466 21.2028 13.9154 21.05 14.3 21.05H31.7C32.0845 21.05 32.4534 21.2028 32.7253 21.4747C32.9972 21.7467 33.15 22.1155 33.15 22.5C33.15 22.8846 32.9972 23.2534 32.7253 23.5254C32.4534 23.7973 32.0845 23.95 31.7 23.95H14.3C13.9154 23.95 13.5466 23.7973 13.2747 23.5254C13.0027 23.2534 12.85 22.8846 12.85 22.5ZM21.55 29.7501C21.55 29.3655 21.7027 28.9967 21.9747 28.7247C22.2466 28.4528 22.6154 28.3001 23 28.3001H31.7C32.0845 28.3001 32.4534 28.4528 32.7253 28.7247C32.9972 28.9967 33.15 29.3655 33.15 29.7501C33.15 30.1346 32.9972 30.5034 32.7253 30.7754C32.4534 31.0473 32.0845 31.2001 31.7 31.2001H23C22.6154 31.2001 22.2466 31.0473 21.9747 30.7754C21.7027 30.5034 21.55 30.1346 21.55 29.7501Z" fill="black"/>
</svg>
